<?xml version="1.0" encoding="UTF-8"?>
<svg version="1.1" xmlns="http://www.w3.org/2000/svg" width="1920" height="1920">
<path d="M0 0 C633.6 0 1267.2 0 1920 0 C1920 633.6 1920 1267.2 1920 1920 C1286.4 1920 652.8 1920 0 1920 C0 1286.4 0 652.8 0 0 Z " fill="#FEFEFE" transform="translate(0,0)"/>
<path d="M0 0 C0.66 0 1.32 0 2 0 C2.4854126 0.85835449 2.9708252 1.71670898 3.47094727 2.60107422 C8.1572524 10.8610973 12.9862871 19.02017831 17.9375 27.125 C18.67086832 28.32905261 19.40401732 29.53323883 20.13696289 30.73754883 C21.65679782 33.23428403 23.17755344 35.73045415 24.69921875 38.22607422 C28.44967567 44.37722914 32.19553679 50.53117452 35.9375 56.6875 C36.29858856 57.28145569 36.65967712 57.87541138 37.03170776 58.48736572 C41.45719418 65.76996322 45.83520923 73.07679266 50.13037109 80.43701172 C54.03527571 87.10593502 58.04798315 93.70923482 62.0625 100.3125 C62.42420288 100.90750305 62.78590576 101.5025061 63.15856934 102.11553955 C66.50973618 107.62701946 69.8647134 113.13617792 73.22021484 118.64501953 C75.39811003 122.22088941 77.57474127 125.79752569 79.75 129.375 C80.10643585 129.96117096 80.4628717 130.54734192 80.83010864 131.15127563 C85.97041733 139.60934428 91.03690333 148.10816032 96.05224609 156.64086914 C100.78461652 164.67508035 105.62070761 172.64473393 110.46875 180.609375 C115.50846957 188.88891429 120.52176458 197.18326239 125.5 205.5 C130.73822951 214.24912768 136.01296825 222.97540935 141.3125 231.6875 C147.62516731 242.06531733 153.89198655 252.46971251 160.13241577 262.89111328 C165.94399369 272.59498975 171.8025331 282.26920548 177.68600464 291.92962646 C182.87678828 300.45679697 187.99129208 309.02596829 193.0625 317.625 C198.99646634 327.68621205 205.06777082 337.65381022 211.21337891 347.58691406 C215.90277073 355.17970111 220.4775848 362.83182056 224.99462891 370.52807617 C229.44843434 378.10255197 233.99422033 385.61929498 238.5625 393.125 C238.92818085 393.72584412 239.29386169 394.32668823 239.67062378 394.94573975 C240.03447174 395.54356262 240.3983197 396.1413855 240.77319336 396.75732422 C241.49596228 397.94496794 242.21870029 399.13263047 242.94140625 400.3203125 C243.29333542 400.89864838 243.64526459 401.47698425 244.00785828 402.07284546 C247.02612223 407.03613408 250.01817874 412.01475949 253 417 C257.35248521 424.27672886 261.74891212 431.52608055 266.1579895 438.76861572 C266.6985347 439.65658844 266.6985347 439.65658844 267.25 440.5625 C267.6107663 441.15512634 267.97153259 441.74775269 268.3432312 442.3583374 C273.6476437 451.07658016 278.87885518 459.83425865 284.0625 468.625 C290.06621629 478.80518229 296.20787468 488.88730346 302.42431641 498.93847656 C306.38695051 505.35342458 310.27510119 511.80144487 314.06835938 518.31762695 C318.08745322 525.19958027 322.23233007 532.00457485 326.375 538.8125 C333.76453689 550.95806646 341.09868535 563.13560822 348.39746094 575.3359375 C354.60262687 585.70515303 360.84658137 596.0499868 367.125 606.375 C373.15611158 616.29394402 379.15596912 626.23107018 385.125 636.1875 C385.50198029 636.81628052 385.87896057 637.44506104 386.2673645 638.09289551 C389.5053012 643.49434332 392.74092024 648.89717814 395.97607422 654.30029297 C403.53785926 666.92794791 411.13434079 679.53342046 418.78039551 692.11016846 C425.69915025 703.49116545 432.55966744 714.90616667 439.39746094 726.3359375 C445.66499817 736.80937932 451.97189223 747.25814373 458.3125 757.6875 C466.87839325 771.77774428 475.36404976 785.9153483 483.83398438 800.06347656 C491.37413629 812.65577065 498.94860209 825.22627582 506.57440186 837.7668457 C514.60305057 850.9715652 522.55194076 864.22358834 530.48681641 877.48486328 C531.37051223 878.96166038 532.25444363 880.43831655 533.13867188 881.91479492 C534.21428172 883.71098282 535.28883467 885.50780351 536.36328125 887.3046875 C537.53240594 889.22997636 538.75055831 891.12583746 540 893 C539.91088867 895.00024414 539.91088867 895.00024414 539 897 C537.0324707 898.53295898 537.0324707 898.53295898 534.42578125 899.99609375 C533.45946777 900.54789307 532.4931543 901.09969238 531.49755859 901.66821289 C529.92095459 902.54401001 529.92095459 902.54401001 528.3125 903.4375 C526.10244792 904.69458026 523.89282129 905.95240874 521.68359375 907.2109375 C520.56194824 907.84483398 519.44030273 908.47873047 518.28466797 909.13183594 C513.44648828 911.88356412 508.6597851 914.71926606 503.875 917.5625 C502.06003566 918.63695498 500.24493136 919.71117357 498.4296875 920.78515625 C497.53475586 921.31512207 496.63982422 921.84508789 495.71777344 922.39111328 C491.14691269 925.09700372 486.57331041 927.79825263 482 930.5 C480.16665371 931.5833114 478.33332037 932.66664473 476.5 933.75 C465.49999999 940.25000001 465.49999999 940.25000001 462.74829102 941.87597656 C460.92061539 942.95598885 459.09297847 944.03606665 457.26538086 945.11621094 C452.59580489 947.87590327 447.92549807 950.63434627 443.25390625 953.390625 C431.57339109 960.2828728 431.57339109 960.2828728 419.9375 967.25 C412.12184394 971.96213495 404.23786873 976.55814245 396.36151123 981.16772461 C383.92314902 988.44805412 371.52205334 995.78962839 359.12792969 1003.14501953 C354.31754971 1005.99775658 349.50287619 1008.84320687 344.6875 1011.6875 C343.79877197 1012.2124707 342.91004395 1012.73744141 341.99438477 1013.27832031 C340.21942915 1014.32670774 338.44444559 1015.37504786 336.66943359 1016.42333984 C332.11251506 1019.11481413 327.55629881 1021.80747679 323 1024.5 C321.16666991 1025.58333881 319.33333658 1026.66667215 317.5 1027.75 C316.5925 1028.28625 315.685 1028.8225 314.75 1029.375 C262.50000002 1060.24999999 262.50000002 1060.24999999 259.74829102 1061.87597656 C257.92061539 1062.95598885 256.09297847 1064.03606665 254.26538086 1065.11621094 C249.59580489 1067.87590327 244.92549807 1070.63434627 240.25390625 1073.390625 C228.57339109 1080.2828728 228.57339109 1080.2828728 216.9375 1087.25 C208.85343834 1092.12643528 200.69419184 1096.87555667 192.54586792 1101.64343262 C185.8451686 1105.56479702 179.14644388 1109.48705275 172.5 1113.5 C165.45441537 1117.7519284 158.35227805 1121.90626629 151.25 1126.0625 C138.18163013 1133.71048683 125.14935211 1141.41735295 112.12792969 1149.14501953 C107.31754971 1151.99775658 102.50287619 1154.84320687 97.6875 1157.6875 C96.79877197 1158.2124707 95.91004395 1158.73744141 94.99438477 1159.27832031 C93.21942915 1160.32670774 91.44444559 1161.37504786 89.66943359 1162.42333984 C85.11251506 1165.11481413 80.55629881 1167.80747679 76 1170.5 C74.16666991 1171.58333881 72.33333658 1172.66667215 70.5 1173.75 C69.5925 1174.28625 68.685 1174.8225 67.75 1175.375 C59.50000001 1180.25 59.50000001 1180.25 56.74902344 1181.87548828 C54.91884158 1182.95701849 53.08876315 1184.03872374 51.25878906 1185.12060547 C46.62807798 1187.85798381 41.9955138 1190.59213545 37.359375 1193.3203125 C35.96525391 1194.14184814 35.96525391 1194.14184814 34.54296875 1194.97998047 C32.69771379 1196.06680983 30.85137778 1197.15180609 29.00390625 1198.23486328 C24.56176938 1200.84934607 20.16490483 1203.51060163 15.828125 1206.296875 C15.0124707 1206.81556152 14.19681641 1207.33424805 13.35644531 1207.86865234 C11.83073429 1208.84395663 10.31372962 1209.83307402 8.80761719 1210.83837891 C5.71057554 1212.81022579 3.75183137 1213.97424557 0.03515625 1214.1015625 C-4.18365644 1212.57041041 -7.77331848 1210.38505292 -11.5625 1208 C-13.35309057 1206.89928919 -15.14482742 1205.80044168 -16.9375 1204.703125 C-17.90816406 1204.10693359 -18.87882813 1203.51074219 -19.87890625 1202.89648438 C-24.95660766 1199.8110976 -30.08876357 1196.81948517 -35.22039795 1193.82507324 C-38.32830444 1192.01126108 -41.43378006 1190.19329996 -44.5390625 1188.375 C-45.15955475 1188.01170593 -45.780047 1187.64841187 -46.41934204 1187.27410889 C-56.26073297 1181.50805065 -66.06320839 1175.6761275 -75.87207031 1169.85498047 C-80.68245029 1167.00224342 -85.49712381 1164.15679313 -90.3125 1161.3125 C-91.20122803 1160.7875293 -92.08995605 1160.26255859 -93.00561523 1159.72167969 C-94.78057085 1158.67329226 -96.55555441 1157.62495214 -98.33056641 1156.57666016 C-102.88748494 1153.88518587 -107.44370119 1151.19252321 -112 1148.5 C-113.83333009 1147.41666119 -115.66666342 1146.33332785 -117.5 1145.25 C-156 1122.5 -156 1122.5 -194.5 1099.75 C-195.86209595 1098.9451416 -195.86209595 1098.9451416 -197.25170898 1098.12402344 C-199.07938461 1097.04401115 -200.90702153 1095.96393335 -202.73461914 1094.88378906 C-207.40419511 1092.12409673 -212.07450193 1089.36565373 -216.74609375 1086.609375 C-225.38720466 1081.50966672 -234.02123818 1076.40011411 -242.61791992 1071.22583008 C-247.66627925 1068.19103785 -252.74131389 1065.20299772 -257.8215332 1062.22192383 C-264.72607068 1058.16770726 -271.61327238 1054.08436241 -278.5 1050 C-285.93108982 1045.5932516 -293.3632465 1041.18850249 -300.8125 1036.8125 C-316.08799963 1027.83903382 -331.32873625 1018.80674202 -346.56790161 1009.77175903 C-353.96874284 1005.38433312 -361.37495003 1001.00640722 -368.79345703 996.64892578 C-377.26939938 991.66954296 -385.72935591 986.66309685 -394.19140625 981.66015625 C-396.90849933 980.05408593 -399.62603289 978.44876408 -402.34375 976.84375 C-410.0215832 972.30902536 -417.69887832 967.77347525 -425.3671875 963.22265625 C-437.82425835 955.83073969 -450.29992863 948.47301667 -462.80276489 941.15881348 C-471.00522199 936.35891818 -479.17762039 931.51295441 -487.31494141 926.60327148 C-495.4062767 921.732397 -503.56040177 916.96932322 -511.7124939 912.20120239 C-520.84408437 906.85967426 -529.95323508 901.48430826 -539 896 C-537.63354806 892.33235062 -535.97218899 889.09155561 -533.9453125 885.74609375 C-533.3366333 884.73699951 -532.7279541 883.72790527 -532.10083008 882.68823242 C-531.44880615 881.61549072 -530.79678223 880.54274902 -530.125 879.4375 C-528.75646939 877.17189978 -527.3879803 874.90627448 -526.01953125 872.640625 C-525.33842285 871.51591797 -524.65731445 870.39121094 -523.95556641 869.23242188 C-521.22862568 864.7249693 -518.51999399 860.20664937 -515.8125 855.6875 C-514.83342938 854.05593194 -513.85426334 852.42442114 -512.875 850.79296875 C-510.97715463 847.63010685 -509.08147796 844.46596039 -507.1875 841.30078125 C-500.89584841 830.7917435 -494.55491709 820.31324701 -488.19351196 809.84634399 C-482.76571453 800.91529541 -477.36111747 791.9712248 -472 783 C-466.69583483 774.12407845 -461.34889617 765.27493397 -455.97787476 756.43930054 C-448.17758053 743.60731039 -440.42782661 730.74595018 -432.71386719 717.86181641 C-429.59137505 712.64787726 -426.4630195 707.43745646 -423.33544922 702.2265625 C-420.95060136 698.25261342 -418.56725544 694.27778227 -416.1875 690.30078125 C-410.38956632 680.61638604 -404.55114545 670.95722764 -398.6875 661.3125 C-390.22048612 647.38541377 -381.82976336 633.41326455 -373.46044922 619.42724609 C-367.27829323 609.09754164 -361.06194995 598.78913019 -354.8125 588.5 C-354.45552032 587.91224792 -354.09854065 587.32449585 -353.73074341 586.71893311 C-350.02681324 580.6213179 -346.32020325 574.5253391 -342.61018372 568.431427 C-332.64497445 552.07358594 -332.64497445 552.07358594 -322.88720703 535.59155273 C-317.73075675 526.78018454 -312.38750214 518.07997475 -307.08145142 509.35826111 C-306.54419937 508.47516014 -306.54419937 508.47516014 -305.99609375 507.57421875 C-305.64316254 506.99414566 -305.29023132 506.41407257 -304.92660522 505.81642151 C-300.92034188 499.22920573 -296.95620601 492.61736653 -293 486 C-291.56339131 483.60363163 -290.12546553 481.20805437 -288.6875 478.8125 C-286.24358407 474.74108082 -283.80134113 470.66867924 -281.36328125 466.59375 C-275.50699583 456.81155419 -269.61046656 447.05444205 -263.6875 437.3125 C-255.22042442 423.3854516 -246.82976304 409.41326401 -238.46044922 395.42724609 C-232.27829323 385.09754164 -226.06194995 374.78913019 -219.8125 364.5 C-219.45552032 363.91224792 -219.09854065 363.32449585 -218.73074341 362.71893311 C-215.02681324 356.6213179 -211.32020325 350.5253391 -207.61018372 344.431427 C-197.64204074 328.06787855 -197.64204074 328.06787855 -187.88061523 311.58056641 C-183.87426888 304.73524157 -179.74729113 297.9633242 -175.625 291.1875 C-175.25457581 290.57860931 -174.88415161 289.96971863 -174.50250244 289.34237671 C-174.13316589 288.73527863 -173.76382935 288.12818054 -173.38330078 287.50268555 C-169.19479079 280.61733673 -165.01729008 273.72579518 -160.875 266.8125 C-160.40360596 266.02576904 -159.93221191 265.23903809 -159.4465332 264.4284668 C-157.96383638 261.95262155 -156.48185989 259.47634626 -155 257 C-146.9417624 243.53704546 -138.84998359 230.09601202 -130.68890381 216.69512939 C-124.45460176 206.45232394 -118.32988354 196.14688359 -112.22570801 185.82614136 C-106.27928223 175.77770239 -100.2196127 165.80964811 -94.06933594 155.88427734 C-88.67209991 147.14980876 -83.41588161 138.33627517 -78.1875 129.5 C-72.03785078 119.10788848 -65.8381322 108.75361742 -59.51269531 98.46728516 C-56.2426513 93.13367237 -52.99712869 87.78508365 -49.75 82.4375 C-49.38600098 81.83807587 -49.02200195 81.23865173 -48.64697266 80.62106323 C-41.05112065 68.10877838 -33.51869396 55.55878435 -26 43 C-21.58760566 35.6303864 -17.17065392 28.26358254 -12.74267578 20.90332031 C-11.04964162 18.08270359 -9.36608734 15.25660039 -7.68359375 12.4296875 C-6.68525003 10.76541248 -5.68657375 9.10133689 -4.6875 7.4375 C-4.01219238 6.29390015 -4.01219238 6.29390015 -3.32324219 5.12719727 C-2.27051811 3.38370018 -1.14311723 1.68561355 0 0 Z " fill="#63688F" transform="translate(959,81)"/>
<path d="M0 0 C4.70188425 1.67792732 8.83755108 4.10842426 13.125 6.625 C13.94121826 7.1008252 14.75743652 7.57665039 15.59838867 8.06689453 C26.3343837 14.33990078 37.01961802 20.69960785 47.7109375 27.04833984 C52.57446777 29.93425589 57.44302839 32.81162356 62.3125 35.6875 C63.20042236 36.2119873 64.08834473 36.73647461 65.00317383 37.27685547 C66.77893994 38.32573678 68.55473726 39.37456526 70.33056641 40.42333984 C74.88748494 43.11481413 79.44369319 45.80749032 84 48.5 C84.90427734 49.03431641 85.80855469 49.56863281 86.74023438 50.11914062 C91.38572909 52.86405518 96.03097146 55.60939535 100.67578125 58.35546875 C108.84153949 63.18270902 117.00823944 68.00816726 125.1875 72.8125 C133.70759846 77.81808384 142.20655216 82.8593065 150.70654297 87.89892578 C160.5755275 93.75004067 170.45164629 99.58901715 180.33056641 105.42333984 C184.88748494 108.11481413 189.44369319 110.80749032 194 113.5 C194.90427734 114.03431641 195.80855469 114.56863281 196.74023438 115.11914062 C201.38572909 117.86405518 206.03097146 120.60939535 210.67578125 123.35546875 C218.84153949 128.18270902 227.00823944 133.00816726 235.1875 137.8125 C242.53181672 142.12730848 249.86039513 146.46854357 257.1875 150.8125 C258.36563791 151.51091062 259.54377919 152.20931557 260.72192383 152.90771484 C261.30342697 153.25242828 261.88493011 153.59714172 262.48405457 153.95230103 C278.24903081 163.29760726 294.03283504 172.60928112 309.84835815 181.8687439 C317.69363939 186.46294849 325.51991212 191.0850978 333.3046875 195.78125 C340.88341287 200.34460115 348.51805535 204.81518287 356.13720703 209.31054688 C360.7593711 212.03827802 365.37961088 214.76926382 370 217.5 C371.83332361 218.58334979 373.66665695 219.66668311 375.5 220.75 C386.5 227.25 386.5 227.25 389.24829102 228.87402344 C391.08728211 229.96067774 392.92631225 231.04726596 394.76538086 232.13378906 C399.26246815 234.79077938 403.75893996 237.44879783 408.25390625 240.109375 C416.14472355 244.77833357 424.0385274 249.44174049 431.953125 254.0703125 C444.52389316 261.42276871 457.06481512 268.81615369 469.53955078 276.33105469 C477.55608551 281.15243681 485.61327816 285.90116709 493.6875 290.625 C494.29701508 290.9816272 494.90653015 291.33825439 495.53451538 291.70568848 C497.95022075 293.11899494 500.3659922 294.53218834 502.78187561 295.94519043 C508.63255415 299.36804669 514.47487954 302.80492891 520.3125 306.25 C521.18285889 306.76256348 522.05321777 307.27512695 522.94995117 307.80322266 C523.7669751 308.28581543 524.58399902 308.7684082 525.42578125 309.265625 C526.19744629 309.71873047 526.96911133 310.17183594 527.76416016 310.63867188 C529.26750882 311.55401061 530.74690992 312.50976146 532.20068359 313.50195312 C532.8911377 313.97052734 533.5815918 314.43910156 534.29296875 314.921875 C535.18858521 315.55754395 535.18858521 315.55754395 536.10229492 316.20605469 C538.80721359 317.33771499 540.22068143 316.87941083 543 316 C545.02214765 314.97498514 547.00387497 313.86859069 548.953125 312.7109375 C549.52183319 312.37576111 550.09054138 312.04058472 550.67648315 311.69525146 C552.53850796 310.59540066 554.39421304 309.48533794 556.25 308.375 C557.55157682 307.60342372 558.85350201 306.83243485 560.15576172 306.06201172 C564.11034614 303.71884512 568.0564698 301.36171364 572 299 C572.58890015 298.64736084 573.17780029 298.29472168 573.7845459 297.93139648 C578.60950292 295.04088823 583.43121448 292.14500351 588.24951172 289.2434082 C595.00246795 285.18092236 601.79512029 281.19688694 608.6262207 277.26757812 C615.55460065 273.27552202 622.43632992 269.20618095 629.3125 265.125 C630.17591003 264.61258255 630.17591003 264.61258255 631.0567627 264.08981323 C633.93436228 262.38182482 636.81170696 260.67340777 639.68896484 258.96484375 C644.66421181 256.01241877 649.64402282 253.06774477 654.625 250.125 C655.98165771 249.32340454 655.98165771 249.32340454 657.36572266 248.50561523 C663.30720231 244.99642541 669.25469568 241.49758223 675.20458984 238.00268555 C682.30788486 233.82626458 689.39183816 229.61729109 696.47805786 225.4119873 C705.5080644 220.05447752 714.56120364 214.73760098 723.625 209.4375 C733.63823098 203.58182977 743.60451469 197.65390015 753.54077148 191.66821289 C763.39902761 185.73915921 773.32398498 179.92674589 783.25405884 174.11920166 C783.85471161 173.76791199 784.45536438 173.41662231 785.07421875 173.0546875 C785.66915131 172.70678162 786.26408386 172.35887573 786.87704468 172.00042725 C792.2612875 168.85033286 797.63240517 165.67835222 803 162.5 C808.96663009 158.96693676 814.93993333 155.44572896 820.92578125 151.9453125 C821.52643402 151.59402283 822.12708679 151.24273315 822.74594116 150.88079834 C823.35313995 150.52568176 823.96033875 150.17056519 824.5859375 149.8046875 C834.9243906 143.75807778 845.24054851 137.68021385 855.5 131.5 C868.03188838 123.9526244 880.64973543 116.5560634 893.27978516 109.17480469 C915.59803752 96.13032659 937.91198032 83.07785506 960.0625 69.75 C972.74280813 62.12366658 985.50474982 54.64080553 998.27978516 47.17480469 C1004.50190584 43.53812581 1010.71980947 39.89424636 1016.9375 36.25 C1017.54421539 35.89444031 1018.15093079 35.53888062 1018.77603149 35.17254639 C1026.67116787 30.54518708 1034.55960522 25.90667008 1042.4375 21.25 C1043.30616699 20.73687256 1044.17483398 20.22374512 1045.06982422 19.69506836 C1049.74261372 16.93292085 1054.40916324 14.16065528 1059.0703125 11.37890625 C1060.07263916 10.78239258 1061.07496582 10.18587891 1062.10766602 9.57128906 C1064.02660112 8.42909221 1065.94385821 7.28406978 1067.85913086 6.13574219 C1068.72159424 5.62301758 1069.58405762 5.11029297 1070.47265625 4.58203125 C1071.60586304 3.90491089 1071.60586304 3.90491089 1072.76196289 3.21411133 C1075.11619215 1.93696699 1077.49674077 0.94688861 1080 0 C1076.13794185 5.87782654 1072.14860942 11.63402194 1068 17.3125 C1063.20434607 23.91288004 1058.48045239 30.55871542 1053.8125 37.25 C1049.47112166 43.47315643 1045.10817673 49.67819167 1040.68676758 55.84472656 C1037.43594093 60.38113456 1034.21487237 64.93805441 1031 69.5 C1027.34995982 74.67870433 1023.68813556 79.84835398 1020 85 C1016.35617211 90.09096483 1012.73405023 95.19682097 1009.125 100.3125 C1008.62154053 101.02607666 1008.11808105 101.73965332 1007.59936523 102.47485352 C1005.07294696 106.05706436 1002.54892352 109.64094428 1000.02734375 113.2265625 C994.35898733 121.28056249 988.63521055 129.29087642 982.85791016 137.26708984 C977.67646489 144.42890236 972.57755364 151.64737094 967.49267578 158.87792969 C964.9566065 162.48334581 962.41621857 166.08571205 959.875 169.6875 C959.37476318 170.39656494 958.87452637 171.10562988 958.35913086 171.83618164 C954.85145319 176.80410019 951.32264905 181.75648508 947.78198242 186.70092773 C944.05037516 191.91689037 940.36069592 197.16201339 936.66967773 202.40673828 C933.01073558 207.59493806 929.29524369 212.73974471 925.5625 217.875 C921.05899772 224.0753179 916.67893106 230.34714946 912.375 236.6875 C908.06671551 243.0337122 903.65663267 249.27931683 899.09106445 255.44262695 C893.59625797 262.86882063 888.30852251 270.44015641 883 278 C876.34657127 287.46716549 869.64573291 296.89573658 862.85791016 306.26708984 C857.67336388 313.43318859 852.57168356 320.65614204 847.48388672 327.89111328 C844.49392482 332.14042076 841.49485255 336.38330433 838.49755859 340.62744141 C836.00714626 344.15451319 833.5188188 347.683015 831.03515625 351.21484375 C825.36458114 359.27302944 819.6379664 367.28707166 813.85791016 375.26708984 C808.67336388 382.43318859 803.57168356 389.65614204 798.48388672 396.89111328 C795.49392482 401.14042076 792.49485255 405.38330433 789.49755859 409.62744141 C787.00714626 413.15451319 784.5188188 416.683015 782.03515625 420.21484375 C776.92768165 427.47234755 771.77978063 434.6959656 766.5625 441.875 C762.07463724 448.05167756 757.71859882 454.30345516 753.4375 460.625 C748.92769578 467.28117078 744.2440253 473.75913634 739.37646484 480.15722656 C735.48915222 485.28822306 731.82491127 490.54519051 728.20776367 495.86889648 C724.78568531 500.89269509 721.2615461 505.83333986 717.6875 510.75 C713.05772324 517.12102484 708.50219427 523.53818842 704 530 C699.5567348 536.37573292 695.06609288 542.71163939 690.5 549 C684.11768914 557.79256379 677.89283815 566.69124578 671.67578125 575.60107422 C664.53810665 585.81884675 657.31282852 595.96904157 649.99584961 606.05908203 C645.33491697 612.50203421 640.77764191 619.01447102 636.23095703 625.53833008 C631.85145249 631.81149404 627.38977654 638.02040505 622.89453125 644.2109375 C618.8695304 649.76602342 614.92227619 655.37200988 611 661 C606.55664664 667.3756726 602.06609413 673.71163766 597.5 680 C591.11768914 688.79256379 584.89283815 697.69124578 578.67578125 706.60107422 C572.00839961 716.14560977 565.27508174 725.63914251 558.4375 735.0625 C552.47806218 743.27598856 546.70499606 751.60828235 541 760 C537.56800009 758.85600003 537.201961 758.22662783 535.28515625 755.30859375 C534.77001465 754.53684814 534.25487305 753.76510254 533.72412109 752.9699707 C533.17578613 752.13425537 532.62745117 751.29854004 532.0625 750.4375 C527.82265919 744.09915813 523.50283681 737.87383191 518.875 731.8125 C513.9661884 725.36101073 509.33516431 718.75852811 504.7734375 712.05859375 C497.88823316 701.95068376 490.75003051 692.01917254 483.5625 682.125 C479.05919491 675.9245337 474.678936 669.65285781 470.375 663.3125 C466.06671551 656.9662878 461.65663267 650.72068317 457.09106445 644.55737305 C451.59625797 637.13117937 446.30852251 629.55984359 441 622 C434.9264198 613.35790113 428.82655845 604.73837452 422.625 596.1875 C417.41376776 589.00145213 412.30724949 581.74723058 407.2331543 574.46386719 C403.35853197 568.91226577 399.42068958 563.41160412 395.4375 557.9375 C390.98968443 551.82419689 386.67654457 545.63471267 382.4375 539.375 C377.92827401 532.71965012 373.24451312 526.24306065 368.37866211 519.8449707 C363.98430587 514.04308687 359.8687658 508.07351571 355.7734375 502.05859375 C348.88823316 491.95068376 341.75003051 482.01917254 334.5625 472.125 C330.05919491 465.9245337 325.678936 459.65285781 321.375 453.3125 C317.06671551 446.9662878 312.65663267 440.72068317 308.09106445 434.55737305 C302.59625797 427.13117937 297.30852251 419.55984359 292 412 C285.9264198 403.35790113 279.82655845 394.73837452 273.625 386.1875 C268.41376776 379.00145213 263.30724949 371.74723058 258.2331543 364.46386719 C254.3585303 358.91226336 250.42058329 353.41168318 246.4375 347.9375 C241.97411462 341.80051443 237.6367868 335.59107022 233.375 329.3125 C229.0667321 322.9662776 224.65663202 316.72068231 220.09106445 310.55737305 C214.59625797 303.13117937 209.30852251 295.55984359 204 288 C197.88334006 279.29660296 191.74024833 270.61536515 185.5 262 C179.76396319 254.0807556 174.10864771 246.10743408 168.48388672 238.10888672 C165.99351226 234.56958851 163.49648152 231.03499187 161 227.5 C158.00845651 223.26400553 155.01821172 219.02713391 152.03515625 214.78515625 C146.92768011 207.52765027 141.77964151 200.30413676 136.5625 193.125 C132.0590758 186.92462359 127.67893295 180.65285332 123.375 174.3125 C119.06671551 167.9662878 114.65663267 161.72068317 110.09106445 155.55737305 C104.59625797 148.13117937 99.30852251 140.55984359 94 133 C87.9264198 124.35790113 81.82655845 115.73837452 75.625 107.1875 C70.41376776 100.00145213 65.30724949 92.74723058 60.2331543 85.46386719 C56.3585303 79.91226336 52.42058329 74.41168318 48.4375 68.9375 C43.97411462 62.80051443 39.6367868 56.59107022 35.375 50.3125 C31.07085483 43.97235052 26.66508634 37.73262573 22.10424805 31.57495117 C14.46640578 21.25139672 6.99630985 10.7706349 0 0 Z " fill="#8992B1" transform="translate(420,1079)"/>
<path d="M0 0 C0.66 0.33 1.32 0.66 2 1 C1.67 215.17 1.34 429.34 1 650 C-36.13402764 667.40657545 -36.13402764 667.40657545 -44.98046875 671.11328125 C-45.83576172 671.47486328 -46.69105469 671.83644531 -47.57226562 672.20898438 C-49.29498094 672.93589562 -51.01891418 673.65992823 -52.74414062 674.38085938 C-58.47203156 676.80996495 -64.03049891 679.48841919 -69.58033752 682.30003357 C-76.00077139 685.53641743 -82.55200141 688.46273145 -89.125 691.375 C-90.40127675 691.9434213 -91.67739746 692.51219305 -92.95336914 693.08129883 C-95.47794362 694.20701958 -98.00310061 695.33141467 -100.52880859 696.45458984 C-105.17013178 698.52095472 -109.80503855 700.60135842 -114.4375 702.6875 C-115.6284729 703.22358887 -115.6284729 703.22358887 -116.84350586 703.77050781 C-125.48733028 707.66477447 -134.1162199 711.5918424 -142.74511719 715.51904297 C-148.40011551 718.09204176 -154.05633412 720.66235589 -159.71240234 723.23300171 C-163.24841897 724.84012784 -166.78436169 726.44741657 -170.3203125 728.0546875 C-171.76334601 728.71061275 -173.20637986 729.36653722 -174.64941406 730.02246094 C-175.36681763 730.34855347 -176.08422119 730.674646 -176.82336426 731.01062012 C-253.53377279 765.87898763 -330.24418132 800.74735514 -484.44458008 870.83813477 C-486.13092838 871.60486177 -487.8169703 872.37226303 -489.50268555 873.14038086 C-494.40391838 875.37232831 -499.31097133 877.5907606 -504.22412109 879.79632568 C-507.23475784 881.14880365 -510.24344204 882.50559428 -513.25195312 883.86279297 C-514.73545338 884.53075475 -516.21981291 885.19681184 -517.70507812 885.86083984 C-519.79522386 886.79553104 -521.88223229 887.7369307 -523.96875 888.6796875 C-524.58971558 888.95537567 -525.21068115 889.23106384 -525.85046387 889.5151062 C-529.84958428 891.33223674 -533.35446348 893.56677008 -537 896 C-537.66 896 -538.32 896 -539 896 C-537.63354806 892.33235062 -535.97218899 889.09155561 -533.9453125 885.74609375 C-533.3366333 884.73699951 -532.7279541 883.72790527 -532.10083008 882.68823242 C-531.44880615 881.61549072 -530.79678223 880.54274902 -530.125 879.4375 C-528.75646939 877.17189978 -527.3879803 874.90627448 -526.01953125 872.640625 C-525.33842285 871.51591797 -524.65731445 870.39121094 -523.95556641 869.23242188 C-521.22862568 864.7249693 -518.51999399 860.20664937 -515.8125 855.6875 C-514.83342938 854.05593194 -513.85426334 852.42442114 -512.875 850.79296875 C-510.97715463 847.63010685 -509.08147796 844.46596039 -507.1875 841.30078125 C-500.89584841 830.7917435 -494.55491709 820.31324701 -488.19351196 809.84634399 C-482.76571453 800.91529541 -477.36111747 791.9712248 -472 783 C-466.69583483 774.12407845 -461.34889617 765.27493397 -455.97787476 756.43930054 C-448.17758053 743.60731039 -440.42782661 730.74595018 -432.71386719 717.86181641 C-429.59137505 712.64787726 -426.4630195 707.43745646 -423.33544922 702.2265625 C-420.95060136 698.25261342 -418.56725544 694.27778227 -416.1875 690.30078125 C-410.38956632 680.61638604 -404.55114545 670.95722764 -398.6875 661.3125 C-390.22048612 647.38541377 -381.82976336 633.41326455 -373.46044922 619.42724609 C-367.27829323 609.09754164 -361.06194995 598.78913019 -354.8125 588.5 C-354.45552032 587.91224792 -354.09854065 587.32449585 -353.73074341 586.71893311 C-350.02681324 580.6213179 -346.32020325 574.5253391 -342.61018372 568.431427 C-332.64497445 552.07358594 -332.64497445 552.07358594 -322.88720703 535.59155273 C-317.73075675 526.78018454 -312.38750214 518.07997475 -307.08145142 509.35826111 C-306.54419937 508.47516014 -306.54419937 508.47516014 -305.99609375 507.57421875 C-305.64316254 506.99414566 -305.29023132 506.41407257 -304.92660522 505.81642151 C-300.92034188 499.22920573 -296.95620601 492.61736653 -293 486 C-291.56339131 483.60363163 -290.12546553 481.20805437 -288.6875 478.8125 C-286.24358407 474.74108082 -283.80134113 470.66867924 -281.36328125 466.59375 C-275.50699583 456.81155419 -269.61046656 447.05444205 -263.6875 437.3125 C-255.22042442 423.3854516 -246.82976304 409.41326401 -238.46044922 395.42724609 C-232.27829323 385.09754164 -226.06194995 374.78913019 -219.8125 364.5 C-219.45552032 363.91224792 -219.09854065 363.32449585 -218.73074341 362.71893311 C-215.02681324 356.6213179 -211.32020325 350.5253391 -207.61018372 344.431427 C-197.64204074 328.06787855 -197.64204074 328.06787855 -187.88061523 311.58056641 C-183.87426888 304.73524157 -179.74729113 297.9633242 -175.625 291.1875 C-175.25457581 290.57860931 -174.88415161 289.96971863 -174.50250244 289.34237671 C-174.13316589 288.73527863 -173.76382935 288.12818054 -173.38330078 287.50268555 C-169.19479079 280.61733673 -165.01729008 273.72579518 -160.875 266.8125 C-160.40360596 266.02576904 -159.93221191 265.23903809 -159.4465332 264.4284668 C-157.96383638 261.95262155 -156.48185989 259.47634626 -155 257 C-146.9417624 243.53704546 -138.84998359 230.09601202 -130.68890381 216.69512939 C-124.45460176 206.45232394 -118.32988354 196.14688359 -112.22570801 185.82614136 C-106.27928223 175.77770239 -100.2196127 165.80964811 -94.06933594 155.88427734 C-88.67209991 147.14980876 -83.41588161 138.33627517 -78.1875 129.5 C-72.03785078 119.10788848 -65.8381322 108.75361742 -59.51269531 98.46728516 C-56.2426513 93.13367237 -52.99712869 87.78508365 -49.75 82.4375 C-49.38600098 81.83807587 -49.02200195 81.23865173 -48.64697266 80.62106323 C-41.05112065 68.10877838 -33.51869396 55.55878435 -26 43 C-17.39523321 28.62825497 -8.7679211 14.272936 0 0 Z " fill="#8992B1" transform="translate(959,81)"/>
<path d="M0 0 C2.76927653 2.6595938 4.60321645 5.41498276 6.58984375 8.71484375 C6.9303476 9.27776627 7.27085144 9.84068878 7.62167358 10.42066956 C8.73111562 12.2571365 9.83435277 14.09724621 10.9375 15.9375 C11.70756327 17.21506272 12.47799265 18.49240483 13.2487793 19.76953125 C15.15807001 22.93545887 17.06232437 26.10437706 18.96447754 29.27459717 C20.43016601 31.71674896 21.89880986 34.15712067 23.3671875 36.59765625 C26.71829355 42.17249008 30.05812763 47.75404702 33.39746094 53.3359375 C39.66499798 63.809379 45.97184594 74.25817204 52.3125 84.6875 C59.68270665 96.81048751 66.99815891 108.96554624 74.28613281 121.13818359 C77.40862495 126.35212274 80.5369805 131.56254354 83.66455078 136.7734375 C86.04939864 140.74738658 88.43274456 144.72221773 90.8125 148.69921875 C96.9722288 158.987927 103.18022723 169.24666552 109.4102478 179.49291992 C114.46782432 187.8121865 119.49870761 196.14672083 124.5 204.5 C129.73833058 213.24906751 135.01296788 221.97540875 140.3125 230.6875 C146.62516731 241.06531733 152.89198655 251.46971251 159.13241577 261.89111328 C164.94399369 271.59498975 170.8025331 281.26920548 176.68600464 290.92962646 C181.87678828 299.45679697 186.99129208 308.02596829 192.0625 316.625 C197.99646634 326.68621205 204.06777082 336.65381022 210.21337891 346.58691406 C214.90277073 354.17970111 219.4775848 361.83182056 223.99462891 369.52807617 C228.44843434 377.10255197 232.99422033 384.61929498 237.5625 392.125 C237.92818085 392.72584412 238.29386169 393.32668823 238.67062378 393.94573975 C239.03447174 394.54356262 239.3983197 395.1413855 239.77319336 395.75732422 C240.49596228 396.94496794 241.21870029 398.13263047 241.94140625 399.3203125 C242.29333542 399.89864838 242.64526459 400.47698425 243.00785828 401.07284546 C246.02612223 406.03613408 249.01817874 411.01475949 252 416 C256.35248521 423.27672886 260.74891212 430.52608055 265.1579895 437.76861572 C265.51835297 438.36059753 265.87871643 438.95257935 266.25 439.5625 C266.6107663 440.15512634 266.97153259 440.74775269 267.3432312 441.3583374 C272.6476437 450.07658016 277.87885518 458.83425865 283.0625 467.625 C289.06621629 477.80518229 295.20787468 487.88730346 301.42431641 497.93847656 C305.38695051 504.35342458 309.27510119 510.80144487 313.06835938 517.31762695 C317.08745322 524.19958027 321.23233007 531.00457485 325.375 537.8125 C332.76453689 549.95806646 340.09868535 562.13560822 347.39746094 574.3359375 C353.60262687 584.70515303 359.84658137 595.0499868 366.125 605.375 C372.15611158 615.29394402 378.15596912 625.23107018 384.125 635.1875 C384.50198029 635.81628052 384.87896057 636.44506104 385.2673645 637.09289551 C388.5053012 642.49434332 391.74092024 647.89717814 394.97607422 653.30029297 C402.53785926 665.92794791 410.13434079 678.53342046 417.78039551 691.11016846 C424.69915025 702.49116545 431.55966744 713.90616667 438.39746094 725.3359375 C444.66499817 735.80937932 450.97189223 746.25814373 457.3125 756.6875 C465.87839325 770.77774428 474.36404976 784.9153483 482.83398438 799.06347656 C490.37413629 811.65577065 497.94860209 824.22627582 505.57440186 836.7668457 C511.97929935 847.30098137 518.33752722 857.86230586 524.66796875 868.44140625 C526.72172954 871.8729104 528.78452435 875.29842632 530.86328125 878.71484375 C531.49459961 879.75547974 531.49459961 879.75547974 532.13867188 880.81713867 C533.21095413 882.58279146 534.28692582 884.3462023 535.36328125 886.109375 C536.83220782 888.70366059 537.92683005 891.22732812 539 894 C530.67157872 890.61232562 522.50664924 886.95816068 514.375 883.125 C501.99259261 877.32761734 489.51631686 871.76339223 476.98779297 866.28955078 C469.66652212 863.08663111 462.38811693 859.81246746 455.15531921 856.41409302 C450.46445434 854.21037529 445.74711509 852.07916281 441 850 C435.00097122 847.3725184 429.0556891 844.63820279 423.12423706 841.86212158 C415.13939186 838.12575469 407.13408416 834.43407504 399.125 830.75 C398.32173279 830.38038147 397.51846558 830.01076294 396.69085693 829.62994385 C385.52518717 824.49572098 374.32558629 819.45585076 363.06274414 814.5378418 C356.03971491 811.46906925 349.08725824 808.28319038 342.15576172 805.01220703 C323.26399583 796.14184901 304.24314042 787.54665598 285.23779297 778.92333984 C279.00957021 776.09711005 272.78354238 773.26605249 266.55737305 770.43530273 C264.49210292 769.49640991 262.42673198 768.55773922 260.36132812 767.61914062 C254.23740126 764.83611205 248.11379497 762.05239163 241.99209595 759.26446533 C238.64081326 757.73826235 235.28923321 756.2127133 231.9375 754.6875 C231.26682495 754.38229431 230.5961499 754.07708862 229.90515137 753.76263428 C219.21446962 748.89932092 208.50566309 744.0771013 197.7913208 739.26617432 C182.30997937 732.31431321 166.86507418 725.28855541 151.45117188 718.18847656 C141.39618648 713.55718291 131.33001817 708.95156084 121.25 704.375 C120.57583038 704.06889801 119.90166077 703.76279602 119.20706177 703.44741821 C115.82510151 701.91207058 112.44288309 700.37729265 109.06054688 698.84277344 C102.89484395 696.04514423 96.73148347 693.24236165 90.56790161 690.44006348 C88.49971022 689.49986827 86.43139361 688.55994909 84.36303711 687.62011719 C78.22119333 684.82920679 72.07984 682.03724746 65.9413147 679.23904419 C62.56541121 677.70022105 59.18901931 676.16247135 55.8125 674.625 C55.15056641 674.32350037 54.48863281 674.02200073 53.80664062 673.71136475 C45.38939248 669.87927756 36.95793376 666.08033574 28.51171875 662.3125 C27.63385208 661.92073578 26.75598541 661.52897156 25.85151672 661.12533569 C21.54296488 659.20320688 17.23305673 657.28420302 12.92114258 655.36962891 C11.36407035 654.67616223 9.80702159 653.98264286 8.25 653.2890625 C7.52878464 652.97001953 6.80756927 652.65097656 6.0644989 652.32226562 C1.11323487 650.11323487 1.11323487 650.11323487 0 649 C-0.09703189 647.5741629 -0.12447381 646.14352941 -0.1241985 644.71439451 C-0.12644579 643.78185945 -0.12869308 642.8493244 -0.13100848 641.8885307 C-0.12838146 640.84993752 -0.12575445 639.81134435 -0.12304783 638.74127865 C-0.12420167 637.64437028 -0.12535552 636.54746192 -0.12654433 635.4173139 C-0.12921965 631.69192643 -0.12468135 627.96658102 -0.12025452 624.24119568 C-0.12069003 621.56333606 -0.12152219 618.88547926 -0.12284368 616.2076202 C-0.12492328 610.35979374 -0.12326371 604.51197743 -0.11920547 598.66415215 C-0.11318766 589.9685554 -0.11286806 581.2729651 -0.11374746 572.57736665 C-0.11506357 557.95228116 -0.11171161 543.32720019 -0.10573006 528.70211601 C-0.09981983 514.21441056 -0.09596549 499.72670697 -0.09487724 485.23900032 C-0.0948085 484.33933 -0.09473976 483.43965968 -0.09466894 482.51272662 C-0.09433062 477.94404643 -0.09402923 473.37536624 -0.09374207 468.80668605 C-0.09163977 436.41840466 -0.08489718 404.03012572 -0.07543945 371.6418457 C-0.06626006 340.17049167 -0.05917398 308.69913831 -0.05493164 277.2277832 C-0.05480011 276.25827244 -0.05466859 275.28876168 -0.05453308 274.28987181 C-0.05321459 264.55394488 -0.05193877 254.81801795 -0.05069422 245.08209102 C-0.04815777 225.24760349 -0.04533652 205.413116 -0.04234314 185.57862854 C-0.04220585 184.66660352 -0.04206856 183.7545785 -0.04192711 182.81491635 C-0.03272122 121.87660988 -0.01687542 60.93830477 0 0 Z " fill="#636890" transform="translate(960,82)"/>
<path d="M0 0 C19.51111416 8.03398818 19.51111416 8.03398818 26.92578125 11.5234375 C27.76433151 11.91391266 28.60288177 12.30438782 29.46684265 12.70669556 C32.08372946 13.92592881 34.6982547 15.15011476 37.3125 16.375 C40.76604061 17.98888296 44.22060659 19.60055606 47.67578125 21.2109375 C48.5284407 21.60852264 49.38110016 22.00610779 50.25959778 22.41574097 C58.70588656 26.34515067 67.20236454 30.16010554 75.70352173 33.96893311 C79.14408987 35.51367052 82.57855335 37.07170466 86.01171875 38.6328125 C86.6389534 38.91800751 87.26618805 39.20320251 87.91242981 39.49703979 C89.83758447 40.37273834 91.76254298 41.2488671 93.6875 42.125 C95.10024114 42.7676205 96.51300211 43.41019742 97.92578125 44.05273438 C100.83910533 45.37776405 103.75234707 46.7029745 106.66552734 48.02832031 C110.87691345 49.94416305 115.08875935 51.85899302 119.30078125 53.7734375 C119.97788147 54.08119614 120.65498169 54.38895477 121.3526001 54.70603943 C124.78075311 56.26417709 128.20896366 57.8221881 131.63720703 59.38012695 C137.76159799 62.16345278 143.88570858 64.94738228 150.00790405 67.73553467 C153.35918674 69.26173765 156.71076679 70.7872867 160.0625 72.3125 C160.73317505 72.61770569 161.4038501 72.92291138 162.09484863 73.23736572 C172.78553038 78.10067908 183.49433691 82.9228987 194.2086792 87.73382568 C209.69002063 94.68568679 225.13492582 101.71144459 240.54882812 108.81152344 C253.96832316 114.99249932 267.41447003 121.1134779 280.86973572 127.21612549 C285.77827617 129.44321659 290.68271891 131.679189 295.5859375 133.91796875 C308.82390529 139.95904894 322.07277743 145.95274979 335.43676758 151.71166992 C341.79340015 154.45598644 348.07309799 157.32978884 354.33203125 160.2890625 C359.19820351 162.57729824 364.12148006 164.73813599 369.04614258 166.89697266 C374.37444848 169.24355482 379.65261511 171.69288333 384.9256134 174.16053772 C392.66590284 177.78254785 400.42409144 181.36534661 408.1875 184.9375 C409.3658139 185.47984283 409.3658139 185.47984283 410.56793213 186.03314209 C424.24715184 192.32410729 437.98172564 198.48428009 451.75854492 204.55834961 C459.57877995 208.00940388 467.35547768 211.5363016 475.09277344 215.16943359 C481.73152154 218.28570613 488.39765804 221.34305539 495.06079102 224.40673828 C496.64378612 225.13489977 498.22646929 225.86373978 499.80883789 226.59326172 C508.70900704 230.6965089 517.61286383 234.77502972 526.64048767 238.59216309 C530.96475952 240.44812888 534.95601708 242.6111548 539 245 C536.7711451 247.41610527 534.50365182 249.02785066 531.66796875 250.6796875 C530.79849609 251.18951172 529.92902344 251.69933594 529.03320312 252.22460938 C528.09412109 252.76923828 527.15503906 253.31386719 526.1875 253.875 C524.18091895 255.04935849 522.17441052 256.22384107 520.16796875 257.3984375 C519.14106934 257.9975293 518.11416992 258.59662109 517.05615234 259.21386719 C512.36033037 261.95828591 507.68051268 264.72958206 503 267.5 C501.1667543 268.58348163 499.33342067 269.66681448 497.5 270.75 C496.5925 271.28625 495.685 271.8225 494.75 272.375 C464.5 290.25 464.5 290.25 461.74829102 291.87597656 C459.92061539 292.95598885 458.09297847 294.03606665 456.26538086 295.11621094 C451.59580489 297.87590327 446.92549807 300.63434627 442.25390625 303.390625 C430.57339109 310.2828728 430.57339109 310.2828728 418.9375 317.25 C411.12184394 321.96213495 403.23786873 326.55814245 395.36151123 331.16772461 C382.92314902 338.44805412 370.52205334 345.78962839 358.12792969 353.14501953 C353.31754971 355.99775658 348.50287619 358.84320687 343.6875 361.6875 C342.79877197 362.2124707 341.91004395 362.73744141 340.99438477 363.27832031 C339.21942915 364.32670774 337.44444559 365.37504786 335.66943359 366.42333984 C331.11251506 369.11481413 326.55629881 371.80747679 322 374.5 C320.16666991 375.58333881 318.33333658 376.66667215 316.5 377.75 C315.5925 378.28625 314.685 378.8225 313.75 379.375 C261.5 410.25 261.5 410.25 258.74829102 411.87597656 C256.92061539 412.95598885 255.09297847 414.03606665 253.26538086 415.11621094 C248.59580489 417.87590327 243.92549807 420.63434627 239.25390625 423.390625 C227.57339109 430.2828728 227.57339109 430.2828728 215.9375 437.25 C207.85343834 442.12643528 199.69419184 446.87555667 191.54586792 451.64343262 C184.8451686 455.56479702 178.14644388 459.48705275 171.5 463.5 C164.45441537 467.7519284 157.35227805 471.90626629 150.25 476.0625 C137.18163013 483.71048683 124.14935211 491.41735295 111.12792969 499.14501953 C106.31754971 501.99775658 101.50287619 504.84320687 96.6875 507.6875 C95.79877197 508.2124707 94.91004395 508.73744141 93.99438477 509.27832031 C92.21942915 510.32670774 90.44444559 511.37504786 88.66943359 512.42333984 C84.11251506 515.11481413 79.55629881 517.80747679 75 520.5 C73.16666991 521.58333881 71.33333658 522.66667215 69.5 523.75 C68.13875 524.554375 68.13875 524.554375 66.75 525.375 C64 527 61.25 528.625 58.5 530.25 C57.59209717 530.7864917 56.68419434 531.3229834 55.7487793 531.87573242 C53.91952794 532.95664629 52.09026366 534.0375383 50.26098633 535.1184082 C44.67062242 538.42164665 39.0805506 541.72537747 33.49145508 545.03076172 C31.64184832 546.123616 29.79144165 547.21511776 27.94018555 548.30517578 C23.59108906 550.86717181 19.25481547 553.4460813 14.9453125 556.07421875 C14.16067627 556.54835205 13.37604004 557.02248535 12.56762695 557.51098633 C11.10275239 558.3970158 9.64262866 559.29096539 8.18823242 560.1940918 C6.5034853 561.20764005 4.7555821 562.11479696 3 563 C2.01 562.67 1.02 562.34 0 562 C0 376.54 0 191.08 0 0 Z " fill="#454A74" transform="translate(960,731)"/>
<path d="M0 0 C0.66 0.33 1.32 0.66 2 1 C1.28457031 1.93457031 0.56914063 2.86914062 -0.16796875 3.83203125 C-6.3758909 11.99607632 -12.318115 20.29209491 -18.06884766 28.78393555 C-22.3311071 35.06325889 -26.73148429 41.22949185 -31.19287109 47.3684082 C-34.85369467 52.40714502 -38.47581454 57.47071899 -42.0625 62.5625 C-42.80040771 63.60990356 -42.80040771 63.60990356 -43.55322266 64.6784668 C-45.03626788 66.78509282 -46.51832837 68.89240768 -48 71 C-54.07489942 79.64119356 -60.17342378 88.26160099 -66.375 96.8125 C-70.98122812 103.16427521 -75.51345667 109.56316348 -80 116 C-85.01238626 123.19126252 -90.09756582 130.32377949 -95.24389648 137.41967773 C-100.39505229 144.52810024 -105.45754689 151.69728295 -110.50732422 158.87792969 C-113.0433935 162.48334581 -115.58378143 166.08571205 -118.125 169.6875 C-118.62523682 170.39656494 -119.12547363 171.10562988 -119.64086914 171.83618164 C-123.14854681 176.80410019 -126.67735095 181.75648508 -130.21801758 186.70092773 C-133.94962484 191.91689037 -137.63930408 197.16201339 -141.33032227 202.40673828 C-144.98926442 207.59493806 -148.70475631 212.73974471 -152.4375 217.875 C-156.94100228 224.0753179 -161.32106894 230.34714946 -165.625 236.6875 C-169.93328449 243.0337122 -174.34336733 249.27931683 -178.90893555 255.44262695 C-184.40374203 262.86882063 -189.69147749 270.44015641 -195 278 C-201.65342873 287.46716549 -208.35426709 296.89573658 -215.14208984 306.26708984 C-220.32663612 313.43318859 -225.42831644 320.65614204 -230.51611328 327.89111328 C-233.50607518 332.14042076 -236.50514745 336.38330433 -239.50244141 340.62744141 C-241.99285374 344.15451319 -244.4811812 347.683015 -246.96484375 351.21484375 C-252.63541886 359.27302944 -258.3620336 367.28707166 -264.14208984 375.26708984 C-269.32663612 382.43318859 -274.42831644 389.65614204 -279.51611328 396.89111328 C-282.50607518 401.14042076 -285.50514745 405.38330433 -288.50244141 409.62744141 C-290.99285374 413.15451319 -293.4811812 416.683015 -295.96484375 420.21484375 C-301.07231835 427.47234755 -306.22021937 434.6959656 -311.4375 441.875 C-315.92536276 448.05167756 -320.28140118 454.30345516 -324.5625 460.625 C-329.07230422 467.28117078 -333.7559747 473.75913634 -338.62353516 480.15722656 C-342.51084778 485.28822306 -346.17508873 490.54519051 -349.79223633 495.86889648 C-353.21431469 500.89269509 -356.7384539 505.83333986 -360.3125 510.75 C-364.94227676 517.12102484 -369.49780573 523.53818842 -374 530 C-378.4432652 536.37573292 -382.93390712 542.71163939 -387.5 549 C-393.88231086 557.79256379 -400.10716185 566.69124578 -406.32421875 575.60107422 C-413.46189335 585.81884675 -420.68717148 595.96904157 -428.00415039 606.05908203 C-432.66508303 612.50203421 -437.22235809 619.01447102 -441.76904297 625.53833008 C-446.14854751 631.81149404 -450.61022346 638.02040505 -455.10546875 644.2109375 C-459.1304696 649.76602342 -463.07772381 655.37200988 -467 661 C-471.44335336 667.3756726 -475.93390587 673.71163766 -480.5 680 C-486.88231086 688.79256379 -493.10716185 697.69124578 -499.32421875 706.60107422 C-506.54977416 716.94465047 -513.85356919 727.22960801 -521.26123047 737.44360352 C-523.85287165 741.01821325 -526.43153723 744.60018663 -528.97265625 748.2109375 C-529.43269043 748.86296143 -529.89272461 749.51498535 -530.36669922 750.18676758 C-531.22481339 751.40541659 -532.07950803 752.62648326 -532.93017578 753.8503418 C-535.77831623 757.88915811 -535.77831623 757.88915811 -538 759 C-538.45779844 703.02390685 -538.8102022 647.04800004 -539.02130659 591.07040276 C-539.04632066 584.46148289 -539.07220711 577.85256671 -539.09863281 571.24365234 C-539.10387902 569.92793895 -539.10912523 568.61222557 -539.11453041 567.25664207 C-539.20155313 545.95368003 -539.35923897 524.65201209 -539.54305592 503.34964862 C-539.73010217 481.49069818 -539.84117803 459.63231305 -539.8817699 437.77259517 C-539.90921129 424.28370257 -539.9958603 410.79786133 -540.15832934 397.30990818 C-540.26407196 388.05997961 -540.29599951 378.81162767 -540.27002755 369.5611386 C-540.25721607 364.22300756 -540.27679748 358.89020462 -540.3841095 353.55302238 C-540.9820168 322.31329412 -540.9820168 322.31329412 -536.02472973 315.14289951 C-531.39140207 310.83274933 -526.33735473 308.53253355 -520.32325029 306.73870993 C-517.24454572 305.75979274 -514.69965712 304.2049042 -512.0078125 302.44140625 C-510.38063768 301.481043 -508.75304252 300.52139154 -507.125 299.5625 C-505.26430101 298.46488089 -503.40362456 297.36722355 -501.54296875 296.26953125 C-500.62177246 295.72635254 -499.70057617 295.18317383 -498.75146484 294.62353516 C-496.07915079 293.04670388 -493.40840285 291.46725928 -490.73828125 289.88671875 C-482.85037242 285.21854342 -474.95896512 280.5567982 -467.046875 275.9296875 C-464.59371281 274.49485523 -462.14056135 273.06000466 -459.6875 271.625 C-459.0728186 271.26542206 -458.45813721 270.90584412 -457.8248291 270.53536987 C-448.20860059 264.90731476 -438.64227874 259.20066897 -429.09790039 253.45141602 C-421.15509603 248.67433679 -413.16170561 243.98935714 -405.14794922 239.33251953 C-396.54359309 234.32881576 -387.98072133 229.25701549 -379.42285156 224.17431641 C-371.70260202 219.59254962 -363.96364475 215.04395977 -356.2137146 210.51260376 C-345.58704931 204.29915018 -335.00383818 198.02037718 -324.45922852 191.66821289 C-314.60097239 185.73915921 -304.67601502 179.92674589 -294.74594116 174.11920166 C-294.14528839 173.76791199 -293.54463562 173.41662231 -292.92578125 173.0546875 C-292.33084869 172.70678162 -291.73591614 172.35887573 -291.12295532 172.00042725 C-285.7387125 168.85033286 -280.36759483 165.67835222 -275 162.5 C-269.03336991 158.96693676 -263.06006667 155.44572896 -257.07421875 151.9453125 C-256.17323959 151.41837799 -256.17323959 151.41837799 -255.25405884 150.88079834 C-254.64686005 150.52568176 -254.03966125 150.17056519 -253.4140625 149.8046875 C-243.0756094 143.75807778 -232.75945149 137.68021385 -222.5 131.5 C-209.96811162 123.9526244 -197.35026457 116.5560634 -184.72021484 109.17480469 C-162.40196248 96.13032659 -140.08801968 83.07785506 -117.9375 69.75 C-105.25719187 62.12366658 -92.49525018 54.64080553 -79.72021484 47.17480469 C-73.49809416 43.53812581 -67.28019053 39.89424636 -61.0625 36.25 C-60.45578461 35.89444031 -59.84906921 35.53888062 -59.22396851 35.17254639 C-48.70828857 29.00927991 -38.209538 22.81772699 -27.72070312 16.60888672 C-24.76840476 14.86304625 -21.81406694 13.12069252 -18.859375 11.37890625 C-17.8480249 10.78239258 -16.8366748 10.18587891 -15.79467773 9.57128906 C-13.85185309 8.42547582 -11.90867402 7.28026328 -9.96508789 6.13574219 C-9.0961792 5.62301758 -8.22727051 5.11029297 -7.33203125 4.58203125 C-6.18311401 3.90491089 -6.18311401 3.90491089 -5.01098633 3.21411133 C-3.31218848 2.18848043 -1.6511184 1.1007456 0 0 Z " fill="#636890" transform="translate(1498,1079)"/>
</svg>
